GIL04_fast2_ik
nRows=3
nColumns=375

# SIMM Motion File Header:
name GIL04_fast2_ik
datacolumns 375
datarows 3
otherdata 1
range 0.34167000 0.35833000
endheader
time	pelvis_tx	pelvis_ty	pelvis_tz	pelvis_tilt	pelvis_list	pelvis_rotation	hip_flexion_r	hip_adduction_r	hip_rotation_r	knee_angle_r	ankle_angle_r	hip_flexion_l	hip_adduction_l	hip_rotation_l	knee_angle_l	ankle_angle_l	lumbar_extension	lumbar_bending	lumbar_rotation	subtalar_angle_r	mtp_angle_r	subtalar_angle_l	mtp_angle_l	asis_r_px	asis_r_py	asis_r_pz	asis_l_px	asis_l_py	asis_l_pz	midasis_px	midasis_py	midasis_pz	psis_r_px	psis_r_py	psis_r_pz	psis_l_px	psis_l_py	psis_l_pz	hip_r_px	hip_r_py	hip_r_pz	hip_l_px	hip_l_py	hip_l_pz	midhip_px	midhip_py	midhip_pz	epicondLat_r_px	epicondLat_r_py	epicondLat_r_pz	epicondMed_r_px	epicondMed_r_py	epicondMed_r_pz	thighwand_r_px	thighwand_r_py	thighwand_r_pz	upperleg1_r_px	upperleg1_r_py	upperleg1_r_pz	upperleg2_r_px	upperleg2_r_py	upperleg2_r_pz	malleolusLat_r_px	malleolusLat_r_py	malleolusLat_r_pz	malleolusMedv_r_px	malleolusMedv_r_py	malleolusMedv_r_pz	shankwand_r_px	shankwand_r_py	shankwand_r_pz	lowerleg1_r_px	lowerleg1_r_py	lowerleg1_r_pz	knee_r_px	knee_r_py	knee_r_pz	ankle_r_px	ankle_r_py	ankle_r_pz	toe_r_px	toe_r_py	toe_r_pz	epicondLat_l_px	epicondLat_l_py	epicondLat_l_pz	epicondMed_l_px	epicondMed_l_py	epicondMed_l_pz	thighwand_l_px	thighwand_l_py	thighwand_l_pz	upperleg1_l_px	upperleg1_l_py	upperleg1_l_pz	upperleg2_l_px	upperleg2_l_py	upperleg2_l_pz	malleolusLat_l_px	malleolusLat_l_py	malleolusLat_l_pz	malleolusMedv_l_px	malleolusMedv_l_py	malleolusMedv_l_pz	shankwand_l_px	shankwand_l_py	shankwand_l_pz	lowerleg1_l_px	lowerleg1_l_py	lowerleg1_l_pz	knee_l_px	knee_l_py	knee_l_pz	ankle_l_px	ankle_l_py	ankle_l_pz	toe_l_px	toe_l_py	toe_l_pz	subclavicle_r_px	subclavicle_r_py	subclavicle_r_pz	subclavicle_l_px	subclavicle_l_py	subclavicle_l_pz	neck_px	neck_py	neck_pz	sternalnotch_px	sternalnotch_py	sternalnotch_pz	xyphoidprocess_px	xyphoidprocess_py	xyphoidprocess_pz	midhip_tx	midhip_ty	midhip_tz	hip_r_tx	hip_r_ty	hip_r_tz	hip_l_tx	hip_l_ty	hip_l_tz	knee_r_tx	knee_r_ty	knee_r_tz	knee_l_tx	knee_l_ty	knee_l_tz	ankle_r_tx	ankle_r_ty	ankle_r_tz	ankle_l_tx	ankle_l_ty	ankle_l_tz	midasis_tx	midasis_ty	midasis_tz	asis_r_tx	asis_r_ty	asis_r_tz	asis_l_tx	asis_l_ty	asis_l_tz	psis_r_tx	psis_r_ty	psis_r_tz	psis_l_tx	psis_l_ty	psis_l_tz	epicondLat_r_tx	epicondLat_r_ty	epicondLat_r_tz	epicondLat_l_tx	epicondLat_l_ty	epicondLat_l_tz	epicondMed_r_tx	epicondMed_r_ty	epicondMed_r_tz	epicondMed_l_tx	epicondMed_l_ty	epicondMed_l_tz	malleolusLat_r_tx	malleolusLat_r_ty	malleolusLat_r_tz	malleolusLat_l_tx	malleolusLat_l_ty	malleolusLat_l_tz	malleolusMedv_r_tx	malleolusMedv_r_ty	malleolusMedv_r_tz	malleolusMedv_l_tx	malleolusMedv_l_ty	malleolusMedv_l_tz	neck_tx	neck_ty	neck_tz	subclavicle_r_tx	subclavicle_r_ty	subclavicle_r_tz	subclavicle_l_tx	subclavicle_l_ty	subclavicle_l_tz	sternalnotch_tx	sternalnotch_ty	sternalnotch_tz	xyphoidprocess_tx	xyphoidprocess_ty	xyphoidprocess_tz	thighwand_r_tx	thighwand_r_ty	thighwand_r_tz	thighwand_l_tx	thighwand_l_ty	thighwand_l_tz	upperleg1_r_tx	upperleg1_r_ty	upperleg1_r_tz	upperleg1_l_tx	upperleg1_l_ty	upperleg1_l_tz	upperleg2_r_tx	upperleg2_r_ty	upperleg2_r_tz	upperleg2_l_tx	upperleg2_l_ty	upperleg2_l_tz	shankwand_r_tx	shankwand_r_ty	shankwand_r_tz	shankwand_l_tx	shankwand_l_ty	shankwand_l_tz	lowerleg1_r_tx	lowerleg1_r_ty	lowerleg1_r_tz	lowerleg1_l_tx	lowerleg1_l_ty	lowerleg1_l_tz	toe_r_tx	toe_r_ty	toe_r_tz	toe_l_tx	toe_l_ty	toe_l_tz	ground_force_vx	ground_force_vy	ground_force_vz	ground_force_px	ground_force_py	ground_force_pz	ground_force_vx	ground_force_vy	ground_force_vz	ground_force_px	ground_force_py	ground_force_pz	ground_torque_x	ground_torque_y	ground_torque_z	ground_torque_x	ground_torque_y	ground_torque_z	ground_marker_px	ground_marker_py	ground_marker_pz	ground_marker_px	ground_marker_py	ground_marker_pz	ground_marker_px	ground_marker_py	ground_marker_pz	ground_marker_px	ground_marker_py	ground_marker_pz	ground_marker_px	ground_marker_py	ground_marker_pz	ground_marker_px	ground_marker_py	ground_marker_pz	ground_marker_px	ground_marker_py	ground_marker_pz	ground_marker_px	ground_marker_py	ground_marker_pz	ground_marker_px	ground_marker_py	ground_marker_pz	ground_marker_px	ground_marker_py	ground_marker_pz	ground_marker_px	ground_marker_py	ground_marker_pz	ground_marker_px	ground_marker_py	ground_marker_pz	ground_marker_px	ground_marker_py	ground_marker_pz	ground_marker_px	ground_marker_py	ground_marker_pz	ground_marker_px	ground_marker_py	ground_marker_pz	ground_marker_px	ground_marker_py	ground_marker_pz	ground_marker_px	ground_marker_py	ground_marker_pz	ground_marker_px	ground_marker_py	ground_marker_pz	ground_marker_px	ground_marker_py	ground_marker_pz	ground_marker_px	ground_marker_py	ground_marker_pz	ground_marker_px	ground_marker_py	ground_marker_pz	ground_marker_px	ground_marker_py	ground_marker_pz	ground_marker_px	ground_marker_py	ground_marker_pz	ground_marker_px	ground_marker_py	ground_marker_pz	ground_marker_px	ground_marker_py	ground_marker_pz	ground_marker_px	ground_marker_py	ground_marker_pz	ground_marker_px	ground_marker_py	ground_marker_pz	ground_marker_px	ground_marker_py	ground_marker_pz	ground_marker_px	ground_marker_py	ground_marker_pz	ground_marker_px	ground_marker_py	ground_marker_pz	ground_marker_px	ground_marker_py	ground_marker_pz	ground_marker_px	ground_marker_py	ground_marker_pz	ground_marker_px	ground_marker_py	ground_marker_pz	ground_marker_px	ground_marker_py	ground_marker_pz	ground_marker_px	ground_marker_py	ground_marker_pz	ground_marker_px	ground_marker_py	ground_marker_pz	ground_marker_px	ground_marker_py	ground_marker_pz
      0.34167000	      1.51113299	      0.74748203	     -0.15461164	     -2.47888767	     -1.25884296	     -1.33793407	     -4.44760417	      5.76530016	      4.73944276	     -5.18359774	      7.15784709	     31.35895126	     -2.85674282	     -6.79168366	    -34.40925201	     -2.92479056	     -6.18255932	     -0.06737756	      9.52593496	      0.00000000	      0.00000000	      0.00000000	      0.00000000	      1.54695730	      0.74271893	     -0.06105132	      1.55265627	      0.73240006	     -0.24751117	      1.52133827	      0.74704547	     -0.15437313	      1.41377312	      0.80585997	     -0.14283841	      1.41408762	      0.79794602	     -0.19719915	      1.45614670	      0.70290143	     -0.09384816	      1.45887404	      0.70010400	     -0.21566446	      1.45751037	      0.70150272	     -0.15475631	      1.41025808	      0.36197564	     -0.06721773	      1.40264839	      0.37586816	     -0.16647361	      1.43269747	      0.45530145	      0.01561071	      1.47466975	      0.51376091	     -0.04927193	      1.46740639	      0.43158739	     -0.06966238	      1.34257533	      0.05298177	     -0.10266180	      1.34660554	      0.06615981	     -0.16117443	      1.34410663	      0.15302688	     -0.02274541	      1.36451732	      0.20981036	     -0.07935886	      1.41448400	      0.37966542	     -0.11995345	      1.34837635	      0.06789084	     -0.14388940	      1.44512681	      0.02506916	     -0.13337490	      1.61308904	      0.40186039	     -0.26842658	      1.63167904	      0.40111830	     -0.16597159	      1.68547796	      0.55320897	     -0.26814351	      1.60895166	      0.57527083	     -0.20171183	      1.63752416	      0.49244162	     -0.19652653	      1.57680335	      0.08442834	     -0.25094726	      1.58763349	      0.08773785	     -0.18828467	      1.67406462	      0.17638629	     -0.26818840	      1.62217694	      0.23715862	     -0.23887627	      1.61932094	      0.41195222	     -0.22203941	      1.58981578	      0.09405927	     -0.20720498	      1.67651559	      0.04867806	     -0.24043061	      1.50975219	      1.11609869	     -0.10537858	      1.50183986	      1.12120599	     -0.22039482	      1.42758868	      1.13822584	     -0.15579954	      1.50387180	      1.10640818	     -0.16588200	      1.56113524	      0.97425892	     -0.17502280	      1.46159800	      0.69191100	     -0.16099000	      1.45428700	      0.69913100	     -0.09476900	      1.45699500	      0.69646100	     -0.22054100	      1.41673300	      0.38842300	     -0.12388500	      1.61652200	      0.40800200	     -0.22621100	      1.34895300	      0.06393300	     -0.12721100	      1.58762100	      0.09507600	     -0.21297700	      1.52195500	      0.76066000	     -0.15756100	      1.51994000	      0.76264700	     -0.06398400	      1.52397000	      0.75867400	     -0.25113800	      1.37923700	      0.80180400	     -0.14643100	      1.37896700	      0.79306600	     -0.20077300	      1.41908400	      0.38343500	     -0.07368700	      1.61126100	      0.40606900	     -0.27589600	      1.41173400	      0.39357500	     -0.17143000	      1.63747400	      0.41567700	     -0.17856400	      1.34408700	      0.06461000	     -0.09407300	      1.57540500	      0.09483900	     -0.24524100	      1.34705700	      0.07434300	     -0.15454500	      1.58543100	      0.10231700	     -0.18418100	      1.43089600	      1.14823800	     -0.15638700	      1.51325600	      1.10405700	     -0.10023800	      1.50867700	      1.10840600	     -0.22570800	      1.50536500	      1.09424100	     -0.16589500	      1.53065300	      0.95293700	     -0.17083100	      1.43504500	      0.47030200	      0.01338000	      1.68292300	      0.57172100	     -0.27436500	      1.47050600	      0.53332800	     -0.04919200	      1.60293800	      0.58900900	     -0.20889600	      1.47122900	      0.45132000	     -0.07272000	      1.63753300	      0.50828200	     -0.20563800	      1.35304900	      0.16418200	     -0.01901200	      1.67108100	      0.18033200	     -0.27175600	      1.37104200	      0.21970700	     -0.07845300	      1.62759300	      0.24327400	     -0.24362400	      1.44249800	      0.03878300	     -0.12448600	      1.66976600	      0.06398900	     -0.22519600	     -0.92407913	    189.22934966	     -3.18853045	      1.45420239	      0.00000000	     -0.13043457	      0.00000000	      0.00000000	      0.00000000	      1.88488354	      0.00000000	     -0.21035269	      0.00000000	      1.29987646	      0.00000000	      0.00000000	      0.00000000	      0.00000000	      1.46159828	      0.69191086	     -0.16099016	      1.45428658	      0.69913083	     -0.09476915	      1.45699489	      0.69646120	     -0.22054055	      1.41673279	      0.38842273	     -0.12388524	      1.61652207	      0.40800226	     -0.22621128	      1.34895313	      0.06393345	     -0.12721102	      1.58762062	      0.09507566	     -0.21297717	      1.52195466	      0.76066041	     -0.15756124	      1.51993954	      0.76264668	     -0.06398401	      1.52396977	      0.75867409	     -0.25113848	      1.37923717	      0.80180365	     -0.14643084	      1.37896705	      0.79306573	     -0.20077272	      1.41908431	      0.38343450	     -0.07368725	      1.61126065	      0.40606922	     -0.27589610	      1.41173351	      0.39357495	     -0.17142992	      1.63747358	      0.41567656	     -0.17856362	      1.34408748	      0.06461015	     -0.09407316	      1.57540536	      0.09483935	     -0.24524142	      1.34705651	      0.07434284	     -0.15454455	      1.58543122	      0.10231651	     -0.18418095	      1.43089592	      1.14823782	     -0.15638748	      1.51325607	      1.10405672	     -0.10023805	      1.50867724	      1.10840583	     -0.22570758	      1.50536525	      1.09424150	     -0.16589502	      1.53065264	      0.95293665	     -0.17083116	      1.43504536	      0.47030157	      0.01338022	      1.68292320	      0.57172143	     -0.27436548	      1.47050595	      0.53332829	     -0.04919168	      1.60293818	      0.58900851	     -0.20889628	      1.47122943	      0.45132029	     -0.07271967	      1.63753319	      0.50828195	     -0.20563811	      1.35304940	      0.16418193	     -0.01901153	      1.67108142	      0.18033199	     -0.27175638	      1.37104249	      0.21970685	     -0.07845253	      1.62759328	      0.24327394	     -0.24362417	      1.44249761	      0.03878342	     -0.12448646	      1.66976619	      0.06398950	     -0.22519581
      0.35000000	      1.52135825	      0.74577450	     -0.15465307	     -2.40094476	     -1.14298887	     -1.72177061	     -6.00377485	      5.59359209	      5.10999123	     -4.06126302	      7.24691986	     31.61433207	     -3.00365572	     -8.25104282	    -30.99085630	     -2.86411183	     -6.29093555	     -0.15282463	      9.75408386	      0.00000000	      0.00000000	      0.00000000	      0.00000000	      1.55655487	      0.74090216	     -0.06086043	      1.56353277	      0.73091630	     -0.24729493	      1.53156233	      0.74535278	     -0.15434614	      1.42383299	      0.80398626	     -0.14343914	      1.42452778	      0.79616740	     -0.19781011	      1.46602869	      0.70100608	     -0.09434095	      1.46958565	      0.69842472	     -0.21614063	      1.46780717	      0.69971540	     -0.15524079	      1.41154575	      0.36133727	     -0.06784473	      1.40434733	      0.37544700	     -0.16710066	      1.43628135	      0.45404296	      0.01502619	      1.47975214	      0.51144540	     -0.04981353	      1.47043193	      0.42948719	     -0.07023411	      1.34231981	      0.05273080	     -0.10383212	      1.34655985	      0.06595633	     -0.16231920	      1.34423892	      0.15266882	     -0.02379020	      1.36510393	      0.20940310	     -0.08028724	      1.41613361	      0.37901869	     -0.12055949	      1.34830076	      0.06765631	     -0.14502805	      1.44484177	      0.02441628	     -0.13430253	      1.62484270	      0.40073366	     -0.26896721	      1.64515498	      0.40098901	     -0.16683734	      1.69623350	      0.55253968	     -0.27118473	      1.62069068	      0.57467960	     -0.20366232	      1.64988803	      0.49208260	     -0.19825826	      1.60973715	      0.08181818	     -0.25043450	      1.62152775	      0.08598042	     -0.18799651	      1.70040060	      0.17992042	     -0.26965336	      1.64520643	      0.23722554	     -0.23941208	      1.63120177	      0.41149431	     -0.22271766	      1.62292651	      0.09238644	     -0.20696247	      1.71179726	      0.05281260	     -0.24183587	      1.51992239	      1.11420702	     -0.10532843	      1.51231864	      1.11942306	     -0.22036060	      1.43790459	      1.13642219	     -0.15594754	      1.51419801	      1.10457460	     -0.16585609	      1.57141809	      0.97240435	     -0.17496500	      1.47175800	      0.69046000	     -0.16101800	      1.46399100	      0.69766000	     -0.09485300	      1.46764300	      0.69493800	     -0.22059900	      1.41873400	      0.38841300	     -0.12352800	      1.62916300	      0.40730000	     -0.22538500	      1.34905600	      0.06431100	     -0.12772900	      1.62060700	      0.09185900	     -0.21474200	      1.53202700	      0.75927000	     -0.15716600	      1.52930700	      0.76129700	     -0.06353200	      1.53474700	      0.75724400	     -0.25080000	      1.38902400	      0.80028300	     -0.14708000	      1.38927200	      0.79137900	     -0.20134200	      1.42089800	      0.38344000	     -0.07332000	      1.62313400	      0.40473900	     -0.27495400	      1.41427600	      0.39403400	     -0.17154200	      1.63929200	      0.41278500	     -0.17899400	      1.34394900	      0.06498000	     -0.09462800	      1.60796900	      0.09111900	     -0.24683500	      1.34719800	      0.07483200	     -0.15514400	      1.61883400	      0.09850300	     -0.18559800	      1.44127200	      1.14663000	     -0.15647300	      1.52373100	      1.10257700	     -0.10041700	      1.51894200	      1.10677400	     -0.22586500	      1.51568000	      1.09265800	     -0.16595400	      1.54110400	      0.95138400	     -0.17085100	      1.43893300	      0.47000300	      0.01366000	      1.69258600	      0.56985000	     -0.27596100	      1.47507100	      0.53245800	     -0.04892300	      1.60495800	      0.58645100	     -0.20846800	      1.47469700	      0.45073600	     -0.07270300	      1.63984500	      0.50553800	     -0.20507800	      1.35295600	      0.16453400	     -0.01932000	      1.69723900	      0.18340600	     -0.27361100	      1.37146200	      0.22007200	     -0.07861200	      1.65018600	      0.24277400	     -0.24449200	      1.44241200	      0.03876400	     -0.12460900	      1.70458900	      0.06634000	     -0.22771300	      1.28167950	    196.32996116	     -3.26802123	      1.45427844	      0.00000000	     -0.13050464	      0.00000000	      0.00000000	      0.00000000	      1.89138574	      0.00000000	     -0.21032832	      0.00000000	      1.40567273	      0.00000000	      0.00000000	      0.00000000	      0.00000000	      1.47175765	      0.69046044	     -0.16101795	      1.46399069	      0.69765955	     -0.09485278	      1.46764350	      0.69493777	     -0.22059919	      1.41873384	      0.38841259	     -0.12352785	      1.62916291	      0.40729982	     -0.22538500	      1.34905636	      0.06431113	     -0.12772916	      1.62060738	      0.09185886	     -0.21474242	      1.53202689	      0.75927031	     -0.15716566	      1.52930689	      0.76129705	     -0.06353163	      1.53474689	      0.75724357	     -0.25079969	      1.38902354	      0.80028272	     -0.14707953	      1.38927209	      0.79137874	     -0.20134173	      1.42089760	      0.38344038	     -0.07331983	      1.62313414	      0.40473911	     -0.27495411	      1.41427553	      0.39403430	     -0.17154174	      1.63929200	      0.41278496	     -0.17899387	      1.34394872	      0.06498013	     -0.09462760	      1.60796857	      0.09111887	     -0.24683546	      1.34719849	      0.07483201	     -0.15514438	      1.61883426	      0.09850311	     -0.18559845	      1.44127190	      1.14662981	     -0.15647297	      1.52373064	      1.10257685	     -0.10041689	      1.51894248	      1.10677421	     -0.22586545	      1.51567984	      1.09265840	     -0.16595361	      1.54110360	      0.95138377	     -0.17085083	      1.43893349	      0.47000334	      0.01365976	      1.69258630	      0.56984967	     -0.27596086	      1.47507095	      0.53245783	     -0.04892258	      1.60495842	      0.58645058	     -0.20846839	      1.47469747	      0.45073649	     -0.07270278	      1.63984454	      0.50553799	     -0.20507759	      1.35295630	      0.16453376	     -0.01932014	      1.69723868	      0.18340616	     -0.27361071	      1.37146235	      0.22007248	     -0.07861175	      1.65018594	      0.24277359	     -0.24449171	      1.44241154	      0.03876361	     -0.12460911	      1.70458901	      0.06634007	     -0.22771332
      0.35833000	      1.53171563	      0.74379908	     -0.15465944	     -2.31637342	     -1.04594472	     -2.14458563	     -7.54144290	      5.41411102	      5.43688395	     -3.01811838	      7.38947096	     31.76694624	     -3.17089944	     -9.85729940	    -27.51035434	     -2.85750871	     -6.32706100	     -0.22778573	     10.15301070	      0.00000000	      0.00000000	      0.00000000	      0.00000000	      1.56622128	      0.73885267	     -0.06061426	      1.57460233	      0.72913810	     -0.24700530	      1.54191781	      0.74339339	     -0.15427715	      1.43401533	      0.80183788	     -0.14409119	      1.43512732	      0.79409598	     -0.19846624	      1.47601155	      0.69885747	     -0.09482274	      1.48047884	      0.69645171	     -0.21659602	      1.47824519	      0.69765459	     -0.15570938	      1.41305576	      0.36064625	     -0.06845836	      1.40639658	      0.37493449	     -0.16772639	      1.43993157	      0.45270535	      0.01446690	      1.48493696	      0.50901252	     -0.05028614	      1.47362151	      0.42731203	     -0.07073130	      1.34201807	      0.05249450	     -0.10496139	      1.34655129	      0.06573991	     -0.16342197	      1.34433022	      0.15235058	     -0.02482764	      1.36577383	      0.20899014	     -0.08120294	      1.41808438	      0.37829176	     -0.12115163	      1.34824319	      0.06741372	     -0.14612341	      1.44455181	      0.02375002	     -0.13503137	      1.63621643	      0.39899796	     -0.26934477	      1.65840701	      0.40036750	     -0.16761539	      1.70679706	      0.55111522	     -0.27437928	      1.63240286	      0.57356348	     -0.20569343	      1.66210600	      0.49116543	     -0.20001556	      1.64218960	      0.07998110	     -0.25008286	      1.65502302	      0.08506707	     -0.18791951	      1.72585018	      0.18371441	     -0.27138033	      1.66770980	      0.23739327	     -0.24002615	      1.64276783	      0.41042801	     -0.22325370	      1.65559471	      0.09149980	     -0.20691936	      1.74608319	      0.05770097	     -0.24365798	      1.52993774	      1.11211643	     -0.10539311	      1.52237302	      1.11746047	     -0.22042198	      1.44792099	      1.13432412	     -0.15601719	      1.52424394	      1.10254998	     -0.16593411	      1.58157462	      0.97043687	     -0.17517558	      1.48210700	      0.68873400	     -0.16104000	      1.47382900	      0.69593200	     -0.09494700	      1.47851400	      0.69309800	     -0.22065700	      1.42107500	      0.38831100	     -0.12316000	      1.64149800	      0.40617100	     -0.22439100	      1.34919300	      0.06467800	     -0.12813800	      1.65315300	      0.08951200	     -0.21674900	      1.54226300	      0.75760500	     -0.15676100	      1.53877200	      0.75971600	     -0.06309000	      1.54575400	      0.75549400	     -0.25043100	      1.39886100	      0.79849400	     -0.14781000	      1.39965500	      0.78940400	     -0.20198800	      1.42298300	      0.38337700	     -0.07293800	      1.63462800	      0.40291200	     -0.27380900	      1.41708800	      0.39406000	     -0.17154200	      1.66136100	      0.41256900	     -0.17790200	      1.34386000	      0.06535300	     -0.09507200	      1.64003300	      0.08826000	     -0.24863200	      1.34730600	      0.07530800	     -0.15566900	      1.65188900	      0.09580800	     -0.18732900	      1.45148600	      1.14473500	     -0.15658700	      1.53411300	      1.10073900	     -0.10066300	      1.52820100	      1.10468600	     -0.22626000	      1.52593600	      1.09076900	     -0.16602200	      1.55051800	      0.94936200	     -0.17101900	      1.44292700	      0.46958900	      0.01395700	      1.70201100	      0.56720000	     -0.27758700	      1.47951800	      0.53131000	     -0.04856800	      1.62507500	      0.58514900	     -0.21111100	      1.47825900	      0.44988200	     -0.07257600	      1.66014700	      0.50436400	     -0.20718800	      1.35304400	      0.16490000	     -0.01953800	      1.72246000	      0.18689200	     -0.27572600	      1.37214900	      0.22031800	     -0.07870500	      1.67196900	      0.24249200	     -0.24550200	      1.44233400	      0.03873600	     -0.12468500	      1.73853000	      0.06952000	     -0.23063700	      3.58860778	    206.04580865	     -3.60448234	      1.45440820	      0.00000000	     -0.13052252	      0.00000000	      0.00000000	      0.00000000	      1.89760181	      0.00000000	     -0.21047589	      0.00000000	      1.52375867	      0.00000000	      0.00000000	      0.00000000	      0.00000000	      1.48210716	      0.68873429	     -0.16103992	      1.47382939	      0.69593191	     -0.09494696	      1.47851431	      0.69309843	     -0.22065668	      1.42107487	      0.38831064	     -0.12315998	      1.64149833	      0.40617117	     -0.22439063	      1.34919286	      0.06467752	     -0.12813824	      1.65315259	      0.08951184	     -0.21674854	      1.54226303	      0.75760508	     -0.15676072	      1.53877211	      0.75971639	     -0.06309045	      1.54575396	      0.75549382	     -0.25043100	      1.39886093	      0.79849404	     -0.14780974	      1.39965498	      0.78940403	     -0.20198834	      1.42298305	      0.38337734	     -0.07293776	      1.63462794	      0.40291172	     -0.27380899	      1.41708815	      0.39405975	     -0.17154235	      1.66136086	      0.41256863	     -0.17790169	      1.34385991	      0.06535339	     -0.09507236	      1.64003348	      0.08825953	     -0.24863219	      1.34730554	      0.07530809	     -0.15566935	      1.65188885	      0.09580761	     -0.18732892	      1.45148551	      1.14473522	     -0.15658687	      1.53411269	      1.10073924	     -0.10066336	      1.52820134	      1.10468614	     -0.22626020	      1.52593577	      1.09076869	     -0.16602181	      1.55051780	      0.94936150	     -0.17101902	      1.44292665	      0.46958938	      0.01395745	      1.70201147	      0.56719971	     -0.27758670	      1.47951758	      0.53131044	     -0.04856847	      1.62507486	      0.58514935	     -0.21111105	      1.47825861	      0.44988152	     -0.07257597	      1.66014719	      0.50436425	     -0.20718777	      1.35304356	      0.16490045	     -0.01953785	      1.72245991	      0.18689170	     -0.27572590	      1.37214947	      0.22031762	     -0.07870471	      1.67196858	      0.24249204	     -0.24550189	      1.44233382	      0.03873603	     -0.12468541	      1.73852992	      0.06951973	     -0.23063704
